<?xml version="1.0" encoding="UTF-8" standalone="no"?>
<!DOCTYPE svg PUBLIC "-//W3C//DTD SVG 1.1//EN" "http://www.w3.org/Graphics/SVG/1.1/DTD/svg11.dtd">
<svg width="100%" height="100%" viewBox="0 0 256 256" version="1.1" xmlns="http://www.w3.org/2000/svg" xmlns:xlink="http://www.w3.org/1999/xlink" style="fill-rule:evenodd;clip-rule:evenodd;stroke-linejoin:round;stroke-miterlimit:2;">
    <path d="M78.022,142.286l-50.022,-28.572l50.022,28.572Zm-4.2,-0l-43.739,24.982c0,-0 0,-49.965 0,-49.965l43.739,24.983Z" style="fill:#13aaff;"/>
    <path d="M177.978,199.429l50.022,-28.572l-50.022,28.572Zm45.821,-28.572l-43.738,24.982c-0,0 -0,-49.964 -0,-49.964l43.738,24.982Z" style="fill:#e8f7ff;"/>
    <path d="M28,113.714l49.689,-28.381l-49.689,28.381Zm45.822,-28.571l-43.739,24.982c0,0 0,-49.964 0,-49.964l43.739,24.982Z" style="fill:#13aaff;"/>
    <path d="M223.799,113.714l-43.738,24.983c-0,-0 -0,-49.965 -0,-49.965l43.738,24.982Z" style="fill:#e8f7ff;"/>
    <path d="M223.799,56.571l-43.738,24.983c-0,-0 -0,-49.965 -0,-49.965l43.738,24.982Z" style="fill:#e8f7ff;"/>
    <path d="M128.045,56.571l50.022,28.572l-50.022,28.571l50.022,-28.571l-50.022,-28.572Zm45.822,28.572l-43.739,24.982c0,0 0,-49.964 0,-49.964l43.739,24.982Z" style="fill:#e8f7ff;"/>
    <path d="M123.844,56.571l-43.738,24.983c-0,-0 -0,-49.965 -0,-49.965l43.738,24.982Z" style="fill:#bee8ff;"/>
    <path d="M78.022,85.143l0,57.143l0,-57.143Zm-45.821,28.571l43.738,-24.982c0,0 0,49.965 0,49.965l-43.738,-24.983Zm-4.201,0l0,0l0,0Z" style="fill:#5ac4ff;"/>
    <path d="M182.178,142.286l43.739,-24.983c-0,0 -0,49.965 -0,49.965l-43.739,-24.982Z" style="fill:#e8f7ff;"/>
    <path d="M82.223,85.143l43.739,-24.982c-0,-0 -0,49.964 -0,49.964l-43.739,-24.982Z" style="fill:#bee8ff;"/>
    <path d="M78.022,142.286l0,57.143l0,-57.143Zm-45.821,28.571l43.738,-24.982c0,-0 0,49.964 0,49.964l-43.738,-24.982Z" style="fill:#5ac4ff;"/>
    <path d="M182.178,199.429l43.739,-24.983c-0,0 -0,49.965 -0,49.965l-43.739,-24.982Z" style="fill:#e8f7ff;"/>
    <path d="M78.022,28l0,57.143l-50.022,-28.572l50.022,28.572l0,-57.143Zm-45.821,28.571l43.738,-24.982c0,0 0,49.965 0,49.965l-43.738,-24.983Z" style="fill:#5ac4ff;"/>
    <path d="M182.178,85.143l43.739,-24.982c-0,-0 -0,49.964 -0,49.964l-43.739,-24.982Z" style="fill:#e8f7ff;"/>
    <path d="M128.045,56.571l50.022,28.572l-50.022,-28.572Zm4.2,0l43.739,-24.982c0,0 0,49.965 0,49.965l-43.739,-24.983Z" style="fill:#e8f7ff;"/>
    <path d="M28,228l50.022,-28.571l-50.022,28.571Zm45.822,-28.571l-43.739,24.982c0,-0 0,-49.965 0,-49.965l43.739,24.983Z" style="fill:#13aaff;"/>
</svg>
